<mxfile host="app.diagrams.net" modified="2023-06-03T03:10:13.442Z" agent="Mozilla/5.0 (iPhone; CPU iPhone OS 16_4_1 like Mac OS X) AppleWebKit/605.1.15 (KHTML, like Gecko) Version/16.4 Mobile/15E148 Safari/604.1" version="21.3.7" etag="VqYjUTCZIsBSKJ-R-mvS" type="github">
  <diagram name="第 1 页" id="e8ynlwI1AfY_pdt79Zxn">
    <mxGraphModel>
      <root>
        <mxCell id="0" />
        <mxCell id="1" parent="0" />
      </root>
    </mxGraphModel>
  </diagram>
</mxfile>
